<svg xmlns="http://www.w3.org/2000/svg" viewBox="0 0 100 100"><defs><style>.a{fill:#fff;}</style></defs><path class="a" d="M79.13,16a1,1,0,0,0-1.24,1.56,43.22,43.22,0,0,1-21.5,76.73,1,1,0,0,0-.87,1.11,1,1,0,0,0,1,.88h.13A45.21,45.21,0,0,0,79.13,16Z"/><path class="a" d="M7.82,51.43A43.07,43.07,0,0,1,43.74,8.83a1,1,0,1,0-.33-2,45.22,45.22,0,0,0-18.8,81.26A1,1,0,0,0,26,87.9a1,1,0,0,0-.22-1.4A43.34,43.34,0,0,1,7.82,51.43Z"/><path class="a" d="M37.11,66.05a6.45,6.45,0,0,0,1.49-4.62v-2.6a7.16,7.16,0,0,0-1.34-4.58,4.47,4.47,0,0,0-2.49-1.5l2.09-.44a1,1,0,0,0-.42-2l-2.17.47C33.15,48.43,32,46,30.74,43.7c-.86-1.64-1.75-3.28-2.66-4.88a1,1,0,0,0-1-.49,1,1,0,0,0-.81.83c-.53,3.61-1,7.27-1.42,10.89-.11,1-.21,1.91-.31,2.86l-2.16.47a1,1,0,0,0,.21,2,.76.76,0,0,0,.21,0l4.77-1V77.45h2.57V67.6h2.48A6.06,6.06,0,0,0,37.11,66.05ZM27.78,42.4c.4.74.8,1.48,1.19,2.23.31.58.61,1.18.91,1.77a2.11,2.11,0,0,0-.53.38,7.22,7.22,0,0,0-1,1.11l-.07.11c-.21.31-.42.62-.66.68a.58.58,0,0,1-.49-.17,1.14,1.14,0,0,1-.14-.16C27.27,46.36,27.51,44.38,27.78,42.4Zm1.47,9.34-2.67.47.21-1.93c0-.26.07-.52.1-.78a1.53,1.53,0,0,0,.68.18l.32,0a2.3,2.3,0,0,0,1.26-1.08l.07-.11a6.14,6.14,0,0,1,.82-1,1,1,0,0,1,.29-.23c.66,1.32,1.31,2.63,1.94,4C31.27,51.4,30.26,51.56,29.25,51.74ZM30.09,55H33a2.71,2.71,0,0,1,2.33.89A4.8,4.8,0,0,1,36,58.73v2.8a4,4,0,0,1-.8,2.82,3.63,3.63,0,0,1-2.66.82H30.09Z"/><polygon class="a" points="40.23 55.78 40.88 55.78 41.57 55.78 41.92 55.78 42.04 55.45 43.03 52.72 43.06 52.64 43.06 52.55 43.06 49.68 43.06 49.18 42.56 49.18 41.05 49.18 40.55 49.18 40.55 49.68 40.55 52.69 40.55 53.19 40.92 53.19 40.4 55.16 40.23 55.78"/><polygon class="a" points="57.38 77.44 56.95 76.7 49.81 64.17 56.5 53.28 56.96 52.52 56.07 52.52 54.43 52.52 54.15 52.52 54 52.76 47.14 63.9 47.14 53.02 47.14 52.52 46.64 52.52 45.06 52.52 44.56 52.52 44.56 53.02 44.56 76.94 44.56 77.44 45.06 77.44 46.64 77.44 47.14 77.44 47.14 76.94 47.14 68.44 48.26 66.66 54.44 77.2 54.59 77.44 54.87 77.44 56.52 77.44 57.38 77.44"/><polygon class="a" points="69.14 54.96 69.64 54.96 69.64 54.46 69.64 53.02 69.64 52.52 69.14 52.52 59.71 52.52 59.21 52.52 59.21 53.02 59.21 76.94 59.21 77.44 59.71 77.44 69.14 77.44 69.64 77.44 69.64 76.94 69.64 75.51 69.64 75.01 69.14 75.01 61.78 75.01 61.78 66.03 67.81 66.03 68.31 66.03 68.31 65.53 68.31 64.09 68.31 63.59 67.81 63.59 61.78 63.59 61.78 54.96 69.14 54.96"/><path class="a" d="M80.37,59.81h2.5v-1a7.44,7.44,0,0,0-1.35-4.66,5,5,0,0,0-4.24-1.82h0a5.18,5.18,0,0,0-4.21,1.79,7.25,7.25,0,0,0-1.37,4.65,6.47,6.47,0,0,0,.69,3.05A7.5,7.5,0,0,0,74,64a30.15,30.15,0,0,0,2.44,1.94,23,23,0,0,1,2.12,1.69,6.11,6.11,0,0,1,1.25,1.59,4.26,4.26,0,0,1,.49,2,4.82,4.82,0,0,1-.78,2.93,3.31,3.31,0,0,1-4.7,0,4.88,4.88,0,0,1-.77-2.93V69.44h-2.5v1.73A7.38,7.38,0,0,0,73,75.83a6,6,0,0,0,8.58,0,7.38,7.38,0,0,0,1.37-4.66,6.6,6.6,0,0,0-.67-3A7.33,7.33,0,0,0,80.59,66a28.88,28.88,0,0,0-2.44-1.91A24.39,24.39,0,0,1,76,62.34a5.85,5.85,0,0,1-1.25-1.61,4.31,4.31,0,0,1-.49-2.07A5,5,0,0,1,75,55.74a3.16,3.16,0,0,1,4.59,0,5.07,5.07,0,0,1,.76,2.95v1.12Z"/><path class="a" d="M46.05,80a8.11,8.11,0,0,0-3.28,1.41c-.7-1-2.53-1.63-3.7-1.9-2.86-.65-6.72-.62-8.13,1.62a4.48,4.48,0,0,0,1,5.48,3.43,3.43,0,0,0,2.24.73,10.23,10.23,0,0,0,4.28-1.29c-.36.45-.73.89-1.11,1.33A33.17,33.17,0,0,1,33,91.51a1,1,0,0,0-.16,1.41,1,1,0,0,0,.78.38,1,1,0,0,0,.62-.22,35.2,35.2,0,0,0,4.62-4.35,36.89,36.89,0,0,0,3.45-4.61l.28,0h.14A25.81,25.81,0,0,0,44,89.33a26.44,26.44,0,0,0,2.56,5.2,1,1,0,0,0,.85.46.94.94,0,0,0,.53-.16,1,1,0,0,0,.31-1.38,23.81,23.81,0,0,1-2.37-4.8,24.54,24.54,0,0,1-.86-3h0c1.58.89,3.92,2.21,6,2.21a3.52,3.52,0,0,0,2.24-.73,4.5,4.5,0,0,0,1-5.49C52.77,79.41,48.92,79.37,46.05,80ZM40.83,82.4a18.6,18.6,0,0,1-1.69,1c-1.42.8-4.73,2.66-6,1.66a2.53,2.53,0,0,1-.51-2.85c.4-.64,1.54-1,3.11-1h.16a10.82,10.82,0,0,1,5,1.14A.35.35,0,0,1,40.83,82.4ZM52,85.56c-1.27,1-4.58-.86-6-1.66-.5-.28-1-.58-1.43-.83a1.36,1.36,0,0,0,0-.45,11.73,11.73,0,0,1,4.81-1c1.58,0,2.71.41,3.12,1A2.53,2.53,0,0,1,52,85.56Z"/><path class="a" d="M52.32,21c-1.74-3-6.2-6.68-10.67-5.44-4.27,1.18-6,6-6.31,8.73-.69,5.52,3.06,11.48,9.43,15.19a3.92,3.92,0,0,0-.69,2.42,1.72,1.72,0,0,0,1.08,1.44h0a1.31,1.31,0,0,0,.47.09,1.54,1.54,0,0,0,.3,0,1.3,1.3,0,0,0,.58-.35,3.11,3.11,0,0,0,.57-.82l4.59,8.19h0a1,1,0,0,0,.86.51.78.78,0,0,0,.22,0,27.64,27.64,0,0,0,7.8-3.07,28.46,28.46,0,0,0,3.63-2.54,2,2,0,0,0,.56,1.27,1.39,1.39,0,0,0,.92.43h.07a1.52,1.52,0,0,0,1.4-1.14,3.86,3.86,0,0,0,.14-2.19c4.11-.36,11-3.21,13.06-7.46C81.84,33,82.79,26.92,79,23.91c-2.9-2.28-7.34-1.64-10.23.17C64.17,27,62.4,33.72,64.16,41a2.59,2.59,0,0,0-1.34.16,1.8,1.8,0,0,0-1,2h0a1.51,1.51,0,0,0,.13.33,1.58,1.58,0,0,0,.52.57,26.81,26.81,0,0,1-2.95,2,25.29,25.29,0,0,1-5.19,2.29,79.92,79.92,0,0,0,3.49-9c.74-2.36,1.37-4.77,1.9-7.2a1.25,1.25,0,0,0,.34.12l.22,0a1.59,1.59,0,0,0,1.28-.69,2.48,2.48,0,0,0,.3-2.21,3,3,0,0,0-.61-1.05c7.63-5.45,11.47-13.23,9.17-19-1.27-3.18-4.7-6.45-8.78-6.55-3.86-.12-6.93,2.56-8.4,4.86-3.16,4.94-1.48,12.8,4,19.65A3.05,3.05,0,0,0,56,28a1.94,1.94,0,0,0,0,2.86h0a1.72,1.72,0,0,0,2,.3c-.54,2.56-1.2,5.1-2,7.58a78.47,78.47,0,0,1-3.47,9L49.25,42h.07a1.83,1.83,0,0,0,1.34-.24,1.29,1.29,0,0,0,.53-.83,1.46,1.46,0,0,0-.65-1.42l-.84-.67a3.31,3.31,0,0,0-.83-.45C53.7,32.74,55.15,25.83,52.32,21Zm17.49,4.82c2.23-1.4,5.77-2,7.92-.29,2.73,2.14,2.1,7.12.81,9.81-1.75,3.68-8.93,6.43-12.13,6.36C64.36,34.81,65.73,28.34,69.81,25.78ZM55,8.74c.94-1.48,3.36-3.94,6.51-3.94h.15c3.18.08,6,2.79,7,5.29,2,4.9-1.87,12.07-9,16.93C54.06,20.61,52.13,13.18,55,8.74ZM46.43,38.08c-6.08-3.28-9.72-8.67-9.11-13.58.26-2.05,1.61-6.15,4.87-7.06a4.77,4.77,0,0,1,1.29-.17c3,0,5.91,2.61,7.11,4.69C53.11,26.31,51.36,33,46.43,38.08Z"/></svg>