<svg xmlns="http://www.w3.org/2000/svg" viewBox="0 0 100 100"><defs><style>.a{fill:#fff;}</style></defs><path class="a" d="M39,38.09c-3.14-5.41-11.16-12-19.2-9.8C12.06,30.42,9,39.18,8.38,44c-1.24,10,5.51,20.67,17,27.36a7,7,0,0,0-1.24,4.35,3.09,3.09,0,0,0,1.95,2.6h0a2.29,2.29,0,0,0,.84.17,2.5,2.5,0,0,0,.54-.07,2.42,2.42,0,0,0,1.05-.63,5.57,5.57,0,0,0,1-1.47L37.8,91.06h0a1.8,1.8,0,0,0,1.56.92,1.9,1.9,0,0,0,.4,0,49.92,49.92,0,0,0,14-5.54,50.78,50.78,0,0,0,6.52-4.56,3.69,3.69,0,0,0,1,2.28,2.59,2.59,0,0,0,1.66.77h.13a2.75,2.75,0,0,0,2.53-2,7.07,7.07,0,0,0,.23-4c7.41-.64,19.88-5.77,23.52-13.42,2.7-5.65,4.4-16.64-2.48-22-5.22-4.1-13.22-2.95-18.41.31-8.24,5.16-11.42,17.35-8.26,30.4a4.47,4.47,0,0,0-2.4.29,3.21,3.21,0,0,0-1.74,3.64h0a2.86,2.86,0,0,0,.24.61,3,3,0,0,0,.93,1,47.93,47.93,0,0,1-5.3,3.6,46.18,46.18,0,0,1-9.35,4.13,144.68,144.68,0,0,0,6.28-16.28c1.34-4.24,2.47-8.59,3.42-13a3,3,0,0,0,.62.22l.38,0a2.85,2.85,0,0,0,2.32-1.24,4.45,4.45,0,0,0,.53-4,5.43,5.43,0,0,0-1.08-1.9c13.73-9.8,20.64-23.82,16.5-34.12C69.32,11.47,63.15,5.58,55.79,5.4c-6.93-.22-12.47,4.6-15.11,8.74C35,23.05,38,37.19,47.9,49.52a5.52,5.52,0,0,0-2.38,1.19,3.42,3.42,0,0,0-1.15,2.56,3.46,3.46,0,0,0,1.11,2.59h0a3.13,3.13,0,0,0,3.56.55c-1,4.6-2.14,9.17-3.55,13.64a139.77,139.77,0,0,1-6.26,16.21l-5.8-10.37.12,0A3.29,3.29,0,0,0,36,75.48,2.26,2.26,0,0,0,36.91,74a2.61,2.61,0,0,0-1.16-2.55l-1.52-1.21a5.62,5.62,0,0,0-1.49-.81C41.43,59.3,44,46.86,39,38.09Zm31.48,8.68c4-2.53,10.4-3.57,14.27-.53,4.9,3.85,3.77,12.82,1.46,17.67C83,70.53,70.08,75.49,64.31,75.37,60.64,63,63.09,51.37,70.43,46.77ZM43.71,16.08c1.7-2.65,6-7.08,11.73-7.08h.26c5.74.14,10.76,5,12.57,9.53C71.81,27.35,64.91,40.25,52.13,49,42.07,37.46,38.6,24.09,43.71,16.08ZM28.35,68.92C17.4,63,10.85,53.3,12,44.46c.46-3.68,2.89-11.07,8.76-12.7A8.44,8.44,0,0,1,23,31.45c5.37,0,10.63,4.7,12.8,8.45C40.38,47.72,37.22,59.76,28.35,68.92Z"/></svg>